<svg width="22" height="22" viewBox="0 0 22 22" fill="none" xmlns="http://www.w3.org/2000/svg">
<path d="M15.125 0H6.875C3.07863 0 0 3.07863 0 6.875V15.125C0 18.9214 3.07863 22 6.875 22H15.125C18.9214 22 22 18.9214 22 15.125V6.875C22 3.07863 18.9214 0 15.125 0ZM19.9375 15.125C19.9375 17.7787 17.7787 19.9375 15.125 19.9375H6.875C4.22125 19.9375 2.0625 17.7787 2.0625 15.125V6.875C2.0625 4.22125 4.22125 2.0625 6.875 2.0625H15.125C17.7787 2.0625 19.9375 4.22125 19.9375 6.875V15.125Z" fill="#F13C6E"/>
</svg>
